/* XPM */
static char *e3848944df114968827e3b8848441a4c[] = {
/* columns rows colors chars-per-pixel */
"64 200 79 1 ",
"  c None",
". c #000001",
"X c #130905",
"o c #030B13",
"O c #0A1016",
"+ c #1B1A1A",
"@ c #260000",
"# c #211008",
"$ c #2A150A",
"% c #351305",
"& c #331508",
"* c #291E1B",
"= c #141A22",
"- c #191D21",
"; c #131F2C",
": c #1B2A3B",
"> c #2A2A2A",
", c #252A31",
"< c #373737",
"1 c #441C0A",
"2 c #5F270E",
"3 c #512814",
"4 c #6D2600",
"5 c #6D2D10",
"6 c #613017",
"7 c #673F32",
"8 c #283442",
"9 c #29394B",
"0 c #363D47",
"q c #2A4259",
"w c #3F5269",
"e c #355472",
"r c gray29",
"t c #565656",
"y c #5A5A5A",
"u c #6D544D",
"i c #79665F",
"p c #4F5968",
"a c #415F7E",
"s c #4D627A",
"d c #5D697B",
"f c DimGray",
"g c gray47",
"h c #803413",
"j c #923C16",
"k c #9D4018",
"l c #A34319",
"z c #894321",
"x c #AE4C20",
"c c #A65228",
"v c #BB5728",
"b c #B75A2D",
"n c #C66230",
"m c #CC6532",
"M c #56779F",
"N c #6D7683",
"B c #5E7EA3",
"V c #6381A5",
"C c #738EB0",
"Z c #868686",
"A c #8B8B8B",
"S c #959595",
"D c #9F9F9F",
"F c #92A6BE",
"G c #AEAEAE",
"H c #A9AFB7",
"J c #B4B4B4",
"K c #92A7C4",
"L c #9BAFCC",
"P c #AEBED4",
"I c #A4BAD9",
"U c #BDC9DA",
"Y c #C5C5C5",
"T c #DBE1E9",
"R c #F4F4F4",
"E c gray97",
"W c #F9F9F9",
"Q c gray99",
"! c white",
/* pixels */
"                                                                ",
"                                                                ",
"                                                                ",
"                                                                ",
"                                                                ",
"                          ....                                  ",
"                          ....                                  ",
"                          ....                                  ",
"                          ....                                  ",
"                          ....                                  ",
"                          ....                                  ",
"                          ....                                  ",
"                          ....                                  ",
"                     JZAAAAAAAADDSJ                             ",
"                     g...>!!!!t...y                             ",
"                     g...<!!!!y...y                             ",
"                     g...<!!!!y...y                             ",
"                     g...<!!!!y...y                             ",
"                 ....dLLLLLLLL0...y                             ",
"                 ....dLLLLLLLI0...t                             ",
"                 ....dLLLLLLLI0...t                             ",
"                 ....dLLLLLLLI8...t                             ",
"                 ....dLLLKCCCCHYJYDtffy                         ",
"                 ....dLLLKBBVMT!!!Y....                         ",
"                 ....dLLLKVVVMT!!!Y....                         ",
"                 ....dLLLKVVVMT!!!Y....                         ",
"                 ;,:;dKKKKVVVMT!!!Y....                         ",
"            D....VVVVVBBBBVVVMT!!!Y....                         ",
"            D....BVVVVVVVVVVVMT!!!Y....                         ",
"             ....BVVVVVVVVVVVMT!!!Y....                         ",
"             ....BVVVVVVVVVVVMT!!!Y....                         ",
"             ....BVVVVVVVVVVVMT!!!Y....                         ",
"             ....BVVVVVVVVVVVMT!!!Y....                         ",
"             ....BVVVVVVVVVVVMT!!!Y....                         ",
"             ....BVVVVVVVVVVVMT!!!Y....                         ",
"             ....BVVVVVVVVVVVBUTTTHppppASSSJ                    ",
"             ....BVVVVVVVVVVVBKLKKLIIILo...Z                    ",
"             ....BVVVVVVVVVVVBKLLLLLLLL-...Z                    ",
"             ....BVVVVVVVVVVVBKLLLLLLLL-...Z                    ",
"             ....BVVVVVVVVVVVBKLLLLLLLL-...A                    ",
"             ....BVVVVVVVVVVVVVVVBF!!!!>...S                    ",
"             ....BVVVVVVVVVVVVVVVBF!!!!>...S                    ",
"             ....BVVVVVVVVVVVVVVVBF!!!!>...S                    ",
"             ....VVVVVVVVVVVVVVVVBF!!!!>...S                    ",
"                 9999sVVVVVVVVVVVBF!!!!>...S                    ",
"                 ....wVVVVVVVVVVVBF!!!!>...S                    ",
"                 ....wVVVVVVVVVVVBF!!!!>...S                    ",
"                 ....wVVVVVVVVVVVBF!!!!>...S                    ",
"                 ....wVVVVVVVVVVVBF!!!!>...S                    ",
"                 ....wVVVVVVVVVVVBF!!!!>...S                    ",
"                 ....wVVVVVVVVVVVBF!!!!>...A                    ",
"                 ....wVVVVVVVVVVVBF!!!!>...Z                    ",
"                 ....wVVVVVVVVVVVBF!!!!>...Z                    ",
"                 ....wVVVVVVVVVVVBF!!!!>...Z                    ",
"                 ....wVVVVVVVVVVVBF!!!!>...Z                    ",
"                 ....wVVVVVVVVVVVBF!!!!>...Z                    ",
"                 ....wVVVCVVVVVVVBF!!!!>...Z                    ",
"                 ffffpssssVVVVVVVBF!!!Q>...Z                    ",
"                      ...-VVVVVVVBF!!!!>...Z                    ",
"                      ...-VVVVVVVBF!!!!>...Z                    ",
"                      ...=VVVVVVVBF!!!!>...Z                    ",
"                     A...=VVVVVVVBF!!!!>...S                    ",
"                      ...=VVVVVVVVCLLLL-...S                    ",
"                      ...=VVVVVVVVCLLLL-...S                    ",
"                      ...=VVVVVVVVCLLLL-...S                    ",
"                      ...=VVVVVVVVCLLLL-...S                    ",
"                      ...=VVVVVVVVCLLLL-...S                    ",
"                      ...=VVVVVVVVCLLLL-...S                    ",
"                      ...=VVVVVVVVCLLLL-...S                    ",
"                      ...=VVVVVVVVCLLLL-...S                    ",
"                      ...=VVVVBBBBCLKKK,++.A                    ",
"                      ...=VVVVaeeeaVBBBQ!!!D....                ",
"                      ...=VVVVaeeeaVVVBR!!!S....                ",
"                      ...=VVVVaeeeaVVVBR!!!S....                ",
"                      ...=VVVVaeeeaVVVBR!!!D....                ",
"                      ...=VVVVaeeeaVVVBPPPUN....                ",
"                      ...=VVVVaeeeaVVVVKLLLd....                ",
"                      ...=VVVVaeeeaVVVVKLLLd....                ",
"                      ...=VVVVaeeeaVVVVKLLLd....                ",
"                      ...=VVVVaeeeaBMMMKLLLd....                ",
"                      ...=VVVVaeeeeeeeeKLLLd....                ",
"                      ...=VVVVaeeeeeeeeKLLLd....                ",
"                      ...=VVVVaeeeeeeeeKLLLd....                ",
"                      ...=VVVVaeeeeeeeeKLLLd....                ",
"                      ...=VVVVaeeeeeeeeKLLLd....                ",
"                      ...=VVVVaeeeeeeeeKLLLd....                ",
"                      ...=VVVVaeeeeeeeeKLLLd....                ",
"                      ...=VVVVaeeeeeeeeKLLLd....                ",
"                      ...=VVVVaeeeeeeeeKLLLd....                ",
"                      ...=VVVVaeeeeeeeeKLLLd....                ",
"                      ...=VVVVaeeeeeeeeKLLLd....                ",
"                      ...=VVVVaeeeeeeeeKLLLd....                ",
"                      ...=VVVVaeeeeeeeeKLLLd....                ",
"                      ...=VVVVaeeeeeeeeKLLLd....                ",
"                      ...=VVVVaeeeeeeeeKLLLd....                ",
"                      ...=VVVVaeeeeeeeeKLLLd....                ",
"                      ...oVVVVaeeeeeeeeKLLLd....                ",
"                          :888qeeeeeeeeKLLLd....                ",
"                          ....qeeeeeeeeKLLLd....                ",
"                          ....qeeeeeeeeKLLLd....                ",
"                          ....qeeeeeeeeKLLLd....                ",
"                          ....qeeeeeeeeKLLLd....                ",
"                          ....qeeeeeeeeKLLLd....                ",
"                          ....qeeeeeeeeKLLLd....                ",
"                          ....qeeeeeeeeKLLLd....                ",
"                          ....qeeeeeeeeKLLLd....                ",
"                          ....qeeeeeeeeKLLLd....                ",
"                          ....qeeeeeeeeKLLLd....                ",
"                          ....qeeeeeeeeKLLLd....                ",
"                          ....qeeeeeeeeKLLLd....                ",
"                          ....qeeeeeeeeKLLLd....                ",
"                          ....qeeeeeeeeKLLLd....                ",
"                          ....qeeeeeeeeKLLLd....                ",
"                          ....qeeeeeeeeKLLLd....                ",
"                          ....qeeeeeeeeKLLLd....                ",
"                          ....qeeeeeeeeKLLLd....                ",
"                          ....qeeeeeeeeKLLLd....                ",
"                          ....qeeeeeeeeKLLLd....                ",
"                          ....qeeeeeeeeKLLLd....                ",
"                          ....qeeeeeeeeKLLLd....                ",
"                          ....qeeeeeeeeKLLLd....                ",
"                          ....qeeeeeeeeKLLLd....                ",
"                          ....qeeeeeeeeKLLLd....                ",
"                          ....qeeeeeeeeKLLLd....                ",
"                          ....qeeeeeeeeKLLLd....                ",
"                          ....qeeeeeeeeKLLLd....                ",
"                          ....qeeeeeeeeKLLLd....                ",
"                          ....qeeeeeeeeLIIId....                ",
"                     S><<>....O=OOOOOOO,,,,-....                ",
"                     Z..........................                ",
"                     Z..........................                ",
"                     A..........................                ",
"                     y...X6666666666666X........                ",
"                 ........$mmmmmmmmmmmmm#........                ",
"                 ........$mmmmmmmmmmmmm#........                ",
"                 ........$mmmmmmmmmmmmm#........                ",
"                 ........$mmmmmmmmmmmmm#........                ",
"             ....nnnnxkkkklllllllllllllkkkl2........            ",
"             ....nmmmvlllllllllllllllllllll2........            ",
"             ....nmmmvlllllllllllllllllllll2........            ",
"             ....nmmmxlllllllllllllllllllll2........            ",
"        SgZZizzzznmmmnvvvvvvvvvvvvvvvvvllllh55555554            ",
"        r...2mmmmmmmmmmmmmmmmmmmmmmmmmmllllllllllllx1...        ",
"        r...6mmmmmmmmmmmmmmmmmmmmmmmmmmlllllllllllll1...        ",
"        r...6mmmmmmmmmmmmmmmmmmmmmmmmmmlllllllllllll1...        ",
"        r...3bbbbbbbbbbbbbbbbbbbbbbbbbbjjjjjjjjjllll1...        ",
"        r.......................................llll1...        ",
"        r.......................................llll1...        ",
"        r.......................................llll1...        ",
"        <.......................................xllx1...        ",
"                      ...#hhhhccccccccc#...     @&&&X...        ",
"                      ...#llllnmmmmmmmm#...     ........        ",
"                      ...#llllnmmmmmmmm#...     ........        ",
"                      ...#llllnmmmmmmmm#...     ........        ",
"                      ...#llllnmmmmmmmm#...                     ",
"                      ...#llllnmmmmmmmm#...                     ",
"                      ...#llllnmmmmmmmm#...                     ",
"                      ...#llllnmmmmmmmm#...                     ",
"                      ...#llllnmmmmmmmm#...                     ",
"                      ...#llllnmmmmmmmm#...                     ",
"                      ...#llllnmmmmmmmm#...                     ",
"                      ...#llllnmmmmmmmm#...                     ",
"                      ...#llllnmmmmmmmm#...                     ",
"                      ...#llllxvvvvmmmm#...                     ",
"                      ...#llllllllxmmmm#...                     ",
"                      ...#llllllllxmmmm#...                     ",
"                      ...#llllllllxmmmm#...                     ",
"                      ...#llllllllxmmmm#...                     ",
"                      ...#llllnmmmmmmmm#...                     ",
"                      ...#llllnmmmmmmmm#...                     ",
"                      ...#llllnmmmmmmmm#...                     ",
"                      ...Xlxllnmmmmmmmm#...                     ",
"                         G111%cmmmmmmmm#...                     ",
"                          ....cmmmmmmmm#...                     ",
"                          ....cmmmmmmmm#...                     ",
"                          ....cmmmmmmmm#...                     ",
"                          ....cmmmmmmmm#...                     ",
"                          ....cmmmmmmmm#...                     ",
"                          ....cmmmmmmmm#...                     ",
"                          ....cmmmmmmmm#...                     ",
"                          ....cmmmmmmmmX...                     ",
"                          ....hlllllllljjjk2OXX+                ",
"                          ....hllllllllllll2....                ",
"                          ....hllllllllllll2....                ",
"                          ....hxllllllllllx5....                ",
"                              7555hllll5554uZgZA                ",
"                              t...%llllX...                     ",
"                              r...1llll#...                     ",
"                              r...1xlllX...                     ",
"                              r...%lkkk*++.                     ",
"                              r........                         ",
"                              r........                         ",
"                              r........                         ",
"                              <........                         ",
"                                                                ",
"                                                                ",
"                                                                ",
"                                                                ",
"                                                                ",
"                                                                "
};
